<svg xmlns="http://www.w3.org/2000/svg" width="880" height="150" viewBox="0 0 880 150" role="img" aria-label="Language distribution: TypeScript 30.3 percent, Python 29.2 percent, C++ 24.7 percent, Jupyter Notebook 4.6 percent, JavaScript 3.8 percent, Rust 3.4 percent, R 3.4 percent, C 0.5 percent.">
  <style>
    .m { font-family: Hack, 'JetBrains Mono', 'SF Mono', Menlo, Consolas, 'Liberation Mono', 'Courier New', monospace; }
    .d { font-family: 'Space Grotesk', 'Segoe UI', system-ui, -apple-system, sans-serif; }

  </style>
<clipPath id="win"><rect x="1" y="1" width="878" height="148" rx="12"/></clipPath>
  <g clip-path="url(#win)">
    <rect x="1" y="1" width="878" height="148" fill="#ffffff"/>
    
  </g>
  <rect x="1" y="1" width="878" height="148" rx="12" fill="none" stroke="#0000004d"/>
  <text class="m" x="34" y="46" font-size="11" letter-spacing="0.12em" fill="#00000073">PROGRAMMING LANGUAGES BY BYTES, ACROSS ORIGINAL REPOSITORIES &#183; MARKUP EXCLUDED</text>
  <clipPath id="bar"><rect x="34" y="76" width="812" height="14" rx="7"/></clipPath>
  <g clip-path="url(#bar)"><rect x="34.0" y="76" width="246.3" height="14" fill="#3178c6"/><rect x="280.3" y="76" width="237.0" height="14" fill="#3572A5"/><rect x="517.2" y="76" width="200.4" height="14" fill="#f34b7d"/><rect x="717.7" y="76" width="37.4" height="14" fill="#DA5B0B"/><rect x="755.0" y="76" width="31.0" height="14" fill="#f1e05a"/><rect x="786.1" y="76" width="27.8" height="14" fill="#dea584"/><rect x="813.9" y="76" width="27.7" height="14" fill="#198CE7"/><rect x="841.6" y="76" width="4.4" height="14" fill="#555555"/></g>
<circle cx="39" cy="114" r="5" fill="#3178c6"/>
  <text class="m" x="51" y="118" font-size="11.5" fill="#000000ad">TypeScript <tspan fill="#00000073">30.3%</tspan></text>
<circle cx="205" cy="114" r="5" fill="#3572A5"/>
  <text class="m" x="217" y="118" font-size="11.5" fill="#000000ad">Python <tspan fill="#00000073">29.2%</tspan></text>
<circle cx="371" cy="114" r="5" fill="#f34b7d"/>
  <text class="m" x="383" y="118" font-size="11.5" fill="#000000ad">C++ <tspan fill="#00000073">24.7%</tspan></text>
<circle cx="537" cy="114" r="5" fill="#DA5B0B"/>
  <text class="m" x="549" y="118" font-size="11.5" fill="#000000ad">Jupyter Note… <tspan fill="#00000073">4.6%</tspan></text>
<circle cx="703" cy="114" r="5" fill="#f1e05a"/>
  <text class="m" x="715" y="118" font-size="11.5" fill="#000000ad">JavaScript <tspan fill="#00000073">3.8%</tspan></text>
<circle cx="39" cy="136" r="5" fill="#dea584"/>
  <text class="m" x="51" y="140" font-size="11.5" fill="#000000ad">Rust <tspan fill="#00000073">3.4%</tspan></text>
<circle cx="205" cy="136" r="5" fill="#198CE7"/>
  <text class="m" x="217" y="140" font-size="11.5" fill="#000000ad">R <tspan fill="#00000073">3.4%</tspan></text>
<circle cx="371" cy="136" r="5" fill="#555555"/>
  <text class="m" x="383" y="140" font-size="11.5" fill="#000000ad">C <tspan fill="#00000073">0.5%</tspan></text>
</svg>
